<svg xmlns="http://www.w3.org/2000/svg" viewBox="0 0 512 512"><path fill="#ea9b22" d="M322.1 354.7a137.4 137.4 0 10-132.2 0"/><path fill="#d88a20" d="M118.6 234.2c0 52 28.8 97.1 71.3 120.5h33.5c-21-23.4-35.2-68.6-35.2-120.5 0-76 30.4-137.4 67.8-137.4-76 0-137.4 61.5-137.4 137.4z"/><path fill="#f4b04e" d="M393.4 234.2c0 52-28.8 97.1-71.3 120.5h-33.5s64-39.1 64-120.5c0-96.3-59.2-137.4-96.6-137.4 76 0 137.4 61.5 137.4 137.4z"/><path fill="#e4eaea" d="M312 352.8H200a28.2 28.2 0 000 56.4h112a28.2 28.2 0 000-56.4z"/><path fill="#b6bcbb" d="M213 381a28.2 28.2 0 0128.2-28.2H200a28.2 28.2 0 100 56.4h41A28.2 28.2 0 01213 381z"/><path fill="#e4eaea" d="M312 409.2H200a28.2 28.2 0 000 56.4h112a28.2 28.2 0 000-56.4z"/><g fill="#b6bcbb"><path d="M213 437.4a28.2 28.2 0 0128.2-28.2H200a28.2 28.2 0 100 56.4h41a28.2 28.2 0 01-28.1-28.2zM218.4 465.7a37.6 37.6 0 1075.2 0"/></g><path fill="#7a8280" d="M245 465.7h-26.6a37.6 37.6 0 0051 35.2 37.6 37.6 0 01-24.4-35.2z"/><path fill="#f23488" d="M303.7 146.9l-41.2 76.8h50.8l-87.9 102.5 19.4-77.5h-34.7l11.4-101.8z"/><path d="M216 195.9c-4.8-.6-9 2.9-9.6 7.6l-5 44.3a8.7 8.7 0 008.7 9.6h23.5L217 324a8.7 8.7 0 0015 7.8l88-102.4a8.7 8.7 0 00-6.7-14.4h-36.2l34.3-64a8.7 8.7 0 00-7.7-12.8h-82.2a8.7 8.7 0 00-8.7 7.8l-3.3 30a8.7 8.7 0 0017.3 2l2.4-22.4h60l-34.4 64a8.7 8.7 0 007.7 12.8h31.9l-51.6 60.1 10.4-41.7a8.7 8.7 0 00-8.4-10.8h-25l3.9-34.5c.5-4.8-3-9.1-7.7-9.6z"/><path d="M402.1 234.2A146.3 146.3 0 00147.8 136a8.7 8.7 0 1012.9 11.7A128.9 128.9 0 11321 345.3c-3-.8-6-1.2-9.2-1.2H200.1c-3.2 0-6.3.4-9.2 1.1A128.8 128.8 0 01146 167.1a8.7 8.7 0 00-14.8-9 145.9 145.9 0 0042.5 197 36.8 36.8 0 002.5 54.1 36.9 36.9 0 0023.8 65.2h10.4a46.4 46.4 0 0091 0h10.4a37 37 0 0023.8-65.2 36.9 36.9 0 002.5-54.1c39.7-27.1 64-72.2 64-121zM256 494.6a29 29 0 01-27.6-20.2h55.2a29 29 0 01-27.6 20.2zm42.2-94a8.7 8.7 0 000 17.3H312a19.5 19.5 0 010 39H200.1a19.5 19.5 0 010-39h70.3a8.7 8.7 0 000-17.4h-70.3a19.5 19.5 0 010-39h111.8a19.5 19.5 0 010 39h-13.7zM481.5 225.5h-51.1a8.7 8.7 0 000 17.4h51a8.7 8.7 0 000-17.4zM90.3 234.2c0-4.8-3.9-8.7-8.7-8.7h-51a8.7 8.7 0 000 17.4h51c4.8 0 8.7-3.9 8.7-8.7zM409 170.8a8.7 8.7 0 0011.4 4.7l47.3-19.6a8.7 8.7 0 10-6.7-16l-47.2 19.5a8.7 8.7 0 00-4.7 11.4zM103 297.6a8.7 8.7 0 00-11.4-4.7l-47.3 19.5a8.7 8.7 0 106.7 16.1L98.2 309c4.5-1.9 6.6-7 4.7-11.4zM379.3 119.6c2.2 0 4.5-.9 6.2-2.6l36.1-36a8.7 8.7 0 10-12.3-12.4L373 104.7a8.7 8.7 0 006.2 14.9z"/><path d="M126.5 351.3l-36.1 36.2a8.7 8.7 0 1012.3 12.3l36.2-36.2a8.7 8.7 0 10-12.4-12.3zM331.3 52.5a8.7 8.7 0 0011.3-4.7l7.7-18.6a8.7 8.7 0 00-16-6.7l-7.7 18.6a8.7 8.7 0 004.7 11.4zM319.4 81.1a8.7 8.7 0 0011.4-4.7l1.9-4.6a8.7 8.7 0 00-16.1-6.6l-2 4.6a8.7 8.7 0 004.8 11.3zM256 68.5c4.8 0 8.7-3.9 8.7-8.7v-51a8.7 8.7 0 00-17.4 0v51c0 4.8 3.9 8.7 8.7 8.7zM181.2 76.4a8.7 8.7 0 1016.1-6.6l-19.5-47.3a8.7 8.7 0 10-16.1 6.7l19.5 47.2zM126.5 117a8.7 8.7 0 0012.4 0c3.4-3.4 3.4-8.9 0-12.3l-36.2-36.1a8.7 8.7 0 10-12.3 12.3l36.1 36.1zM385.5 351.3a8.7 8.7 0 10-12.4 12.3l36.2 36.2a8.7 8.7 0 0012.3 0c3.4-3.4 3.4-9 0-12.3l-36.1-36.2zM44.3 156l47.3 19.5a8.7 8.7 0 0011.3-4.7 8.7 8.7 0 00-4.7-11.4L51 140a8.7 8.7 0 00-6.7 16zM467.7 312.4L420.4 293a8.7 8.7 0 10-6.6 16l47.2 19.6a8.7 8.7 0 0011.4-4.7 8.7 8.7 0 00-4.7-11.4z"/></svg>