<svg xmlns="http://www.w3.org/2000/svg" viewBox="0 0 64 64"><path fill="#57565c" d="M32 8a25 25 0 1025 25A25 25 0 0032 8zm20.79 22.02l-13.06.93a7.6 7.6 0 00-.82-1.97l9.9-8.57a20.92 20.92 0 013.98 9.61zm-8.2-13.83l-8.57 9.9a7.6 7.6 0 00-1.97-.82l.93-13.06a20.92 20.92 0 019.61 3.98zm-15.57-3.98l.93 13.06a7.6 7.6 0 00-1.97.82l-8.57-9.9a20.92 20.92 0 019.61-3.98zm-13.83 8.2l9.9 8.57a7.6 7.6 0 00-.82 1.97l-13.06-.93a20.92 20.92 0 013.98-9.61zm-3.98 15.57l13.06-.93a7.6 7.6 0 00.82 1.97l-9.9 8.57a20.92 20.92 0 01-3.98-9.61zm8.2 13.83l8.57-9.9a7.6 7.6 0 001.97.82l-.93 13.06a20.92 20.92 0 01-9.61-3.98zm15.57 3.98l-.93-13.06a7.6 7.6 0 001.97-.82l8.57 9.9a20.92 20.92 0 01-9.61 3.98zm13.83-8.2l-9.9-8.57a7.6 7.6 0 00.82-1.97l13.06.93a20.92 20.92 0 01-3.98 9.61z"/><path fill="#acabb1" d="M52.79 35.98a21.25 21.25 0 000-5.96l-13.06.93a7.6 7.6 0 00-.82-1.97l9.9-8.57a21.1 21.1 0 00-4.22-4.22l-8.57 9.9a7.6 7.6 0 00-1.97-.82l.93-13.06a21.25 21.25 0 00-5.96 0l.93 13.06a7.6 7.6 0 00-1.97.82l-8.57-9.9a21.1 21.1 0 00-4.22 4.22l9.9 8.57a7.6 7.6 0 00-.82 1.97l-13.06-.93a21.25 21.25 0 000 5.96l13.06-.93a7.6 7.6 0 00.82 1.97l-9.9 8.57a21.1 21.1 0 004.22 4.22l8.57-9.9a7.6 7.6 0 001.97.82l-.93 13.06a21.25 21.25 0 005.96 0l-.93-13.06a7.6 7.6 0 001.97-.82l8.57 9.9a21.1 21.1 0 004.22-4.22l-9.9-8.57a7.6 7.6 0 00.82-1.97z"/><path fill="#ffda44" d="M58 12a5 5 0 00-6 0 5 5 0 000-6 4.77 4.77 0 006 0 5 5 0 000 6zM9 55a5 5 0 00-6 0 5 5 0 000-6 4.77 4.77 0 006 0 5 5 0 000 6z"/><circle cx="32" cy="33" r="2" fill="#e0e0e2"/><circle cx="28" cy="29" r="1"/><circle cx="28" cy="37" r="1"/><circle cx="36" cy="29" r="1"/><circle cx="36" cy="37" r="1"/><path d="M32 30a3 3 0 103 3 3 3 0 00-3-3zm0 4a1 1 0 111-1 1 1 0 01-1 1z"/><path d="M32 7a26 26 0 1026 26A26.03 26.03 0 0032 7zm0 50a24 24 0 1124-24 24.03 24.03 0 01-24 24zM4 16a1 1 0 002 0v-2h2a1 1 0 000-2H6v-2a1 1 0 00-2 0v2H2a1 1 0 000 2h2z"/><path d="M11 14h1a1 1 0 000-2h-1a1 1 0 000 2zM62 18h-1v-1a1 1 0 00-2 0v1h-1a1 1 0 000 2h1v1a1 1 0 002 0v-1h1a1 1 0 000-2zM51.3 12.7a1 1 0 001.26.13 4 4 0 014.88 0 1 1 0 001.4-1.38 4 4 0 010-4.9 1 1 0 00-1.42-1.37 3.78 3.78 0 01-4.84 0 1 1 0 00-1.41 1.38 4 4 0 010 4.89 1 1 0 00.12 1.26zm2.6-4.76a5.25 5.25 0 002.2 0 5.6 5.6 0 00.02 2.18 5.59 5.59 0 00-2.24 0 5.6 5.6 0 00.01-2.18zM9.83 49.55a1 1 0 00-1.4-1.37 3.78 3.78 0 01-4.85 0 1 1 0 00-1.41 1.37 4 4 0 010 4.9 1 1 0 001.39 1.38 4 4 0 014.88 0 1 1 0 001.4-1.38 4 4 0 010-4.9zM6 53.02a5.65 5.65 0 00-1.12.1 5.6 5.6 0 00.01-2.17 5.25 5.25 0 002.22 0 5.6 5.6 0 000 2.18A5.65 5.65 0 006 53zM32 10a23 23 0 1023 23 23.03 23.03 0 00-23-23zm16.1 9.53l-.06.03-8.86 8.02a9.07 9.07 0 00-1.67-1.68l7.84-9.05a.3.3 0 00.01-.03 21.16 21.16 0 012.73 2.71zm4.51 9.5l-12.17.87a9.38 9.38 0 00-.23-.55l9.09-8.23a20.88 20.88 0 013.31 7.91zM53 33c0 .67-.04 1.34-.1 2l-.04-.02-11.93-.85a8.94 8.94 0 00-.01-2.26l11.94-.85.04-.01c.06.65.1 1.32.1 1.99zm-3.62 11.77l-9.22-7.99q.15-.33.28-.68l12.17.87a20.88 20.88 0 01-3.23 7.8zm-13.6-3.61l7.98 9.23a20.88 20.88 0 01-7.8 3.22l-.86-12.17.68-.28zm-5.35-1.34a7 7 0 118.4-5.25 7 7 0 01-8.4 5.25zm-1.53 1.62l-.87 12.17a20.88 20.88 0 01-7.8-3.23l7.98-9.22c.23.1.46.2.69.28zm-17.51-4.47l12.17-.87c.08.23.18.45.28.67l-9.23 8a20.88 20.88 0 01-3.22-7.8zM11 33c0-.67.04-1.34.1-2l.04.02 11.93.85a8.94 8.94 0 00.01 2.26l-11.94.85-.04.01c-.06-.65-.1-1.32-.1-1.99zm3.61-11.77l9.23 7.99c-.1.22-.2.45-.28.68l-12.17-.87a20.88 20.88 0 013.22-7.8zm13.61 3.61l-7.99-9.23a20.88 20.88 0 017.8-3.22l.87 12.17a8.6 8.6 0 00-.68.29zm6.88-.28l.87-12.17a20.88 20.88 0 017.8 3.22l-7.98 9.22-.69-.27zM34 12.1l-.02.04-.85 11.93a8.93 8.93 0 00-2.26.01l-.85-11.94-.01-.04a21.17 21.17 0 013.98 0zm-15.36 4.71a.3.3 0 00.01.03l7.84 9.05a9.01 9.01 0 00-1.6 1.6l-9.05-7.83a.3.3 0 00-.03-.02 21.17 21.17 0 012.83-2.83zM15.8 46.36l.03-.01 9.05-7.84a9 9 0 001.6 1.6l-7.83 9.05a.3.3 0 00-.02.03 21.21 21.21 0 01-2.83-2.83zm14.2 7.54v-.04l.86-11.94a8.1 8.1 0 002.26 0l.85 11.94.01.04a21.17 21.17 0 01-3.98 0zm15.35-4.71a.3.3 0 00-.01-.03L37.5 40.1a9 9 0 001.6-1.6l9.05 7.84.03.01a21.21 21.21 0 01-2.83 2.83z"/></svg>