<svg xmlns="http://www.w3.org/2000/svg" viewBox="-348 -173 1587 1586"><rect x="-135" y="160" width="1300" height="910" fill="#fff"/><rect x="1025" y="1065" width="145" height="200" fill="#fff"/><path fill="#FFB954" d="M-96 395l771 780-191 181-772-798zM353 558l87-168 493-504 105 21 23 99-505 518z"/><path d="M-97 101c-53 0-97 43-97 97v257h65V198c0-18 14-33 32-33h772v-64H-97zM-97 1066c-18 0-32-14-32-32V712h-65v322c0 53 44 97 97 97h322v-65H-97z"/><path d="M698 1149L-83 368a32 32 0 00-46 0l-184 184a32 32 0 000 45l782 782a32 32 0 0045 0l184-184c12-13 12-33 0-46zm-207 161l-736-736 139-138 736 736-139 138z"/><path d="M1093 1066H611v65h354v160c0 18 14 33 32 33h96a129 129 0 100-258zm0 193h-64v-128h64a64 64 0 110 128z"/><path d="M1093 101H933v64h160c36 0 65 29 65 65v965h64V230c0-71-57-129-129-129zM311 800l-96 96-46-45 97-97zM183 671l-96 96-46-45 97-97zM440 928l-96 96-46-45 97-97zM569 1057l-96 97-46-46 97-96zM55 542l-97 97-45-46 96-96z"/><path d="M1066-84l-45-45a97 97 0 00-134 0L397 361a32 32 0 000 45l134 134a32 32 0 0045 0l490-490c37-37 37-97 0-134zm-46 89L554 471l-88-88L932-83c12-12 31-12 44 0l44 44c12 12 12 32 0 44z"/><path d="M543 486l-139 47 47-139-61-21-67 200a32 32 0 0040 41l201-66-21-62zM977 94l-46 46L798 6l46-45z"/><path d="M353 552h483v64H353zM900 552h64v64h-64zM1029 552h64v64h-64z"/></svg>