<svg xmlns="http://www.w3.org/2000/svg" viewBox="0 0 64 64"><circle cx="32" cy="32" r="32" fill="#303030"/><path fill="#fff" d="M20.8 31.5h10c.1 6-3.6 11.3-10.2 11.3A10.4 10.4 0 019.8 32c0-6.3 4.7-10.7 10.9-10.7a10 10 0 018.9 4.6l-2.9 1.9a6.7 6.7 0 00-6-3.3 7 7 0 00-7.2 7.5c0 4.5 3.1 7.5 7.2 7.5a6.3 6.3 0 006.4-5h-6.3zM44.2 31.5h10c0 6-3.6 11.3-10.2 11.3A10.4 10.4 0 0133.2 32c0-6.3 4.6-10.7 10.8-10.7a10 10 0 019 4.6L50 27.8a6.7 6.7 0 00-6-3.3 7 7 0 00-7.2 7.5c0 4.5 3 7.5 7.2 7.5a6.3 6.3 0 006.4-5h-6.3z"/></svg>